PathFileType	3	(X/Y/Z)	D:\minhoCalibration\240510\subject1_KPNP\preferred\preferred06.trc
DataRate	CameraRate	NumFrames	NumMarkers	Units	OrigDataRate	OrigDataStartFrame	OrigNumFrames
200.0	200.0	32	10	mm	200.0	417	190	
Frame#	Time	Left_Ankle_Outer1			Left_Ankle_Inner1			Left_Knee_Outer1			Left_Knee_Inner1			Left_Wrist1			Right_Wrist1			Right_Knee_Inner1			Right_Knee_Outer1			Right_Ankle_Inner1			Right_Ankle_Outer1			
		X1	Y1	Z1	X2	Y2	Z2	X3	Y3	Z3	X4	Y4	Z4	X5	Y5	Z5	X6	Y6	Z6	X7	Y7	Z7	X8	Y8	Z8	X9	Y9	Z9	X10	Y10	Z10	
417	2.075	-535.18506	151.33702	-533.63977	-562.75165	167.26918	-484.34988	-341.93372	562.35419	-511.42889	-415.73434	553.70947	-431.4162	-439.95569	997.55469	-746.90326	-551.89893	1186.736	-450.92761	-282.42117	971.44586	-135.26332	-317.92938	1075.0822	-128.75908	-661.08038	903.7749	119.69114	-694.72406	991.92029	132.02382
418	2.08	-538.19672	150.48904	-532.18268	-565.698	166.43123	-482.6951	-344.03525	561.12372	-507.65115	-419.16702	552.84723	-428.22913	-442.67987	995.0459	-745.73981	-549.18634	1188.0712	-453.58774	-278.14194	979.96271	-136.66151	-315.07327	1082.088	-132.24339	-622.45813	920.05457	169.13309	-656.91992	1007.0292	180.56398
419	2.085	-540.87634	149.53586	-530.96075	-569.23163	165.0677	-482.24631	-345.46222	559.90045	-504.47369	-421.95282	551.87708	-426.01282	-445.03543	992.21722	-743.96027	-547.56268	1189.4607	-454.11188	-278.49719	987.58154	-136.84323	-314.59991	1088.5111	-134.44606	-579.48401	934.67181	215.96783	-614.4104	1022.5673	226.43073
420	2.09	-543.34778	148.38347	-529.97278	-571.96796	163.71013	-481.33087	-347.30594	558.57269	-500.84735	-425.34927	550.76746	-422.93533	-446.40134	989.93542	-741.65857	-546.86292	1189.8243	-455.56512	-282.0094	994.42926	-135.6937	-317.18594	1093.6232	-134.36569	-530.25336	951.51398	256.74484	-567.36969	1038.8027	268.21326
421	2.095	-545.8031	147.11479	-529.16083	-574.19769	162.17224	-480.47119	-349.01279	556.94147	-497.65683	-428.20819	549.51172	-420.61719	-446.8338	987.97626	-739.97003	-546.539	1190.4	-456.30386	-287.15991	1000.1423	-133.31203	-322.56485	1096.9586	-132.07112	-478.1145	967.22589	288.65881	-515.59564	1054.8334	304.16983
422	2.1	-548.14374	145.7997	-528.71149	-576.77942	160.73691	-480.28809	-350.34149	555.4845	-494.82959	-430.09445	548.42908	-419.28397	-447.09485	986.05804	-737.61871	-547.04968	1190.22	-457.36844	-293.05179	1004.9332	-129.77347	-331.20303	1099.7261	-128.52046	-422.55811	982.78333	314.33942	-459.86234	1070.6023	332.37421
423	2.105	-550.4361	144.40703	-528.55133	-579.42908	159.64098	-480.49609	-351.52728	553.96582	-492.40152	-432.72009	546.58722	-417.42352	-446.62836	984.60614	-735.22736	-548.27563	1189.6478	-455.91779	-300.78156	1008.4325	-124.84324	-342.55005	1102.3766	-123.99546	-365.06061	997.07489	329.99261	-402.03378	1084.7516	350.59418
424	2.11	-552.78748	143.00929	-528.56854	-581.51617	157.83009	-480.19815	-352.57346	552.32166	-490.37286	-434.73337	544.8819	-415.5878	-445.50677	983.65259	-732.71014	-549.50574	1188.7067	-454.01453	-308.48688	1010.8759	-119.24979	-353.81677	1105.0731	-118.21144	-317.32114	1009.5295	334.90277	-343.76297	1098.3853	359.63168
425	2.115	-555.21936	141.41928	-528.69299	-584.11688	156.27957	-480.44202	-353.63315	550.16156	-488.58502	-436.62473	542.90625	-414.20386	-444.47495	982.61255	-728.79419	-550.81726	1187.6328	-451.10947	-315.20493	1012.0569	-113.29408	-363.77264	1108.0869	-110.39337	-302.71979	1019.1902	331.88528	-310.19495	1115.4224	361.96118
426	2.12	-557.66211	139.79488	-528.86603	-586.55066	154.61249	-480.38922	-354.18045	548.17249	-487.12329	-437.59662	540.6344	-412.59125	-442.57715	982.40723	-724.25873	-552.17755	1186.8059	-446.9866	-318.55899	1011.8992	-108.21149	-371.42157	1112.6177	-103.38925	-304.04477	1026.7622	335.84244	-289.60892	1127.472	360.40091
427	2.125	-559.75665	138.27644	-529.0174	-588.85773	153.07762	-480.54156	-355.09744	545.74365	-485.45663	-438.05502	538.17963	-410.60089	-440.23563	982.30396	-719.32849	-553.32635	1186.4015	-442.57733	-315.29556	1012.1639	-105.2033	-374.2254	1119.5464	-98.938217	-308.7597	1034.2783	342.20926	-273.39487	1140.8257	360.37393
428	2.13	-561.40063	137.01672	-529.2168	-590.80237	151.7758	-480.89581	-355.85681	543.73865	-483.5022	-437.56662	534.74884	-409.63678	-437.9053	982.10522	-713.31769	-554.31726	1186.8185	-437.15576	-308.62662	1015.2256	-102.03338	-367.45148	1124.1715	-96.46685	-311.31848	1036.0725	344.9472	-257.46478	1152.9485	362.54254
429	2.135	-562.43976	136.04449	-529.27753	-591.93884	150.63144	-481.06305	-357.61563	541.02704	-480.5777	-438.06042	532.62201	-404.27179	-435.53641	981.51819	-707.74548	-555.98718	1186.8518	-433.27951	-304.85559	1018.6193	-100.28469	-356.76526	1125.14	-95.777817	-311.9902	1033.6763	344.97388	-246.3118	1159.528	358.99655
430	2.14	-562.72351	135.35728	-529.47925	-592.98291	149.94901	-481.57748	-358.38	539.5918	-477.46817	-437.46252	529.75775	-401.99313	-433.52551	980.54144	-701.45752	-558.36566	1187.4681	-428.81992	-303.69797	1021.076	-100.98735	-346.34827	1122.8397	-96.436531	-311.82181	1028.9171	343.45413	-231.10216	1162.026	356.71591
431	2.145	-562.37701	134.74809	-529.27289	-593.1767	148.87122	-481.98395	-359.49918	538.92517	-472.84714	-437.76511	528.3927	-396.99799	-431.45374	979.40649	-695.85101	-561.39227	1187.7926	-424.89444	-308.61108	1020.6171	-98.868156	-340.09262	1119.6094	-97.941063	-316.40851	1025.7441	341.86566	-215.29539	1162.0461	353.9686
432	2.15	-561.51495	134.46556	-529.49005	-593.28241	148.17859	-482.31055	-360.37976	538.9245	-467.63309	-438.41882	526.67731	-394.40915	-429.42834	978.17297	-690.65912	-564.73584	1187.4222	-422.03009	-311.72525	1018.6838	-97.96933	-340.65283	1118.7731	-99.056129	-323.74423	1022.3885	342.6922	-209.92278	1166.6184	352.94531
433	2.155	-560.51886	134.36751	-529.50977	-593.07446	147.65898	-482.74167	-361.21432	539.40503	-461.74472	-440.18948	526.07355	-391.17358	-427.5087	976.98279	-685.32056	-568.64398	1186.8469	-419.39713	-313.48459	1016.2625	-96.843132	-344.33459	1118.3394	-97.988922	-332.42062	1017.6717	345.45926	-211.27991	1173.8784	354.62943
434	2.16	-559.47095	134.24477	-529.35223	-592.88049	147.25717	-483.54538	-362.02478	539.85742	-455.45779	-442.95462	526.19043	-387.11102	-425.53406	975.85126	-680.18677	-573.14783	1186.0952	-416.47223	-314.82516	1014.7087	-95.531868	-345.78873	1118.0038	-96.231812	-340.84152	1011.7505	347.94598			
435	2.165	-558.12891	134.48756	-529.58276	-592.71179	147.2484	-484.383	-362.92007	540.10345	-449.00342	-446.41431	527.19788	-382.14313	-423.5	974.71252	-675.00122	-577.35242	1184.8827	-414.6662	-314.24927	1014.6931	-96.147728	-345.87296	1117.8577	-94.743492	-347.39908	1003.9719	349.5101			
436	2.17	-556.84485	134.65547	-529.47687	-592.04004	147.07506	-485.02863	-363.64291	540.36346	-442.60208	-449.85394	527.62238	-378.61993	-421.41809	973.53326	-669.82428	-581.44794	1183.6904	-412.93869	-310.25812	1015.9127	-99.038635	-347.30225	1116.8722	-93.220413	-352.60181	994.81494	350.35736			
437	2.175	-555.57007	135.12375	-529.29504	-591.67816	147.12854	-485.50436	-364.62738	540.66656	-436.34747	-453.34888	527.38129	-376.53668	-419.30951	972.52881	-664.69519	-585.31213	1182.4464	-411.28778	-304.42477	1018.2659	-101.39503	-350.13907	1115.5656	-91.433624	-360.36429	984.44354	349.85086			
438	2.18	-554.56335	135.50281	-528.97107	-591.6178	147.41313	-485.79065	-365.72372	540.94934	-430.6188	-457.62384	528.35327	-371.68979	-417.42239	971.5929	-659.6319	-589.00598	1181.1803	-409.43384	-297.03152	1022.2759	-103.2999	-353.49384	1113.6244	-89.315186	-363.98749	972.57642	348.92307			
439	2.185	-553.7229	136.04352	-528.49066	-591.35645	147.58281	-485.87561	-367.19769	541.38898	-425.17508	-460.85364	528.98187	-368.76086	-415.60565	970.84174	-654.76135	-592.61609	1179.7555	-407.46722	-293.49176	1024.7378	-101.71944	-357.0372	1111.1296	-86.824371	-371.10583	960.95532	346.76474			
440	2.19	-553.20782	136.58904	-527.78589	-591.0755	147.8414	-485.7449	-368.70389	542.0542	-420.38831	-463.2774	528.8324	-367.65543	-413.77423	970.27191	-650.0824	-596.13361	1178.2638	-405.45105	-291.80875	1024.4498	-98.39138	-360.73209	1108.0653	-84.113342	-376.56741	947.76495	344.10718			
441	2.195	-552.90741	137.14398	-527.00146	-590.89661	148.01233	-485.38455	-370.25461	542.72528	-416.07172	-466.08691	529.50092	-364.46317	-412.0033	969.94073	-645.54388	-599.42859	1176.8303	-403.37134	-291.73483	1020.7844	-95.85778	-364.42245	1104.4854	-81.175392	-383.14731	934.04828	341.02176			
442	2.2	-552.95398	137.71106	-526.23395	-591.36871	148.35811	-484.85217	-371.54443	543.39703	-412.29794	-468.15195	529.89435	-362.36154	-410.20813	969.86304	-641.28809	-602.55084	1175.387	-401.4852	-292.9588	1015.7549	-94.401657	-367.5694	1100.6259	-77.795319	-390.71091	919.87366	337.23853			
443	2.205	-553.39532	138.2092	-525.0257	-591.92926	148.72623	-484.25015	-372.72266	544.09412	-408.99948	-470.01166	530.28491	-360.26593	-408.35983	970.31665	-637.34418	-605.40973	1173.839	-399.83582	-294.54196	1010.2521	-93.604927	-369.61368	1096.3328	-73.945801	-395.52536	906.31427	335.08936			
444	2.21	-553.6048	138.86172	-524.62299	-592.39355	149.11287	-483.67395	-373.80029	544.51648	-406.25378	-471.51349	531.00995	-358.1738	-406.66479	970.96472	-633.59167	-607.92566	1172.1998	-398.6257	-296.63098	1004.655	-92.921455	-370.37155	1091.512	-70.090263	-402.77127	891.21106	331.80768			
445	2.215	-553.95001	139.38937	-523.98804	-592.79767	149.42244	-483.00696	-374.54095	544.9649	-404.13638	-472.09155	530.65247	-358.27264	-404.90637	971.94971	-630.09399	-610.33685	1170.3658	-397.82703	-298.94217	998.77063	-92.001518	-370.39111	1086.3163	-66.8563	-410.49777	874.73065	327.35312			
446	2.22	-554.18628	139.92897	-523.53583	-593.03149	149.7482	-482.39935	-375.29089	545.33099	-402.37753	-473.28146	530.95392	-356.84158	-403.07761	973.19806	-626.79437	-612.83423	1168.4772	-397.24017	-301.54001	992.8548	-90.924789	-370.56973	1080.8851	-64.459221	-419.73447	858.5708	322.79391			
447	2.225	-554.34723	140.28682	-523.17212	-593.23065	150.00188	-482.16455	-375.90353	545.46509	-401.15051	-473.96109	531.07007	-356.01758	-401.3244	974.62335	-623.54749	-615.63959	1166.5065	-396.32352	-304.29111	986.98187	-89.918793	-371.71176	1075.3285	-62.785946	-428.866	843.33154	318.03964			
448	2.23	-554.2785	140.62553	-523.01971	-593.44196	150.48027	-482.57379	-376.52454	545.56525	-400.12329	-474.39716	531.12671	-355.43927	-399.34473	976.19617	-620.47736	-618.47235	1164.4069	-395.89359	-307.19971	981.0603	-89.276085	-374.01846	1069.6483	-61.604965	-439.05066	827.00751	312.29214			
